<svg xmlns="http://www.w3.org/2000/svg" viewBox="0 0 21.08 10.11">
  <path fill="#000" d="M2.87 8.82a2.08 2.08 0 0 0 1.45-.44 1.75 1.75 0 0 0 .46-1.33 3.58 3.58 0 0 0-.38-1.59l-.09-.17.19-.07.76-.26.16-.06.06.16a5.37 5.37 0 0 1 .45 1.99 3.37 3.37 0 0 1-.32 1.49 2.8 2.8 0 0 1-2.78 1.4 3.02 3.02 0 0 1-2.1-.66A2.53 2.53 0 0 1 0 7.34a5.47 5.47 0 0 1 .45-2.08l.07-.16.17.07.69.29.16.06-.06.16a4.46 4.46 0 0 0-.36 1.67 1.4 1.4 0 0 0 .43 1.1 2 2 0 0 0 1.32.37Zm-.7-4.06.63-.63.07-.07.06.07.65.64.06.07-.06.06-.64.64-.07.07-.06-.07-.65-.64-.06-.07ZM12.67.79l.06-.02V0l-.13.05-3.51 1.36-.06.02v.77l.12-.06L12.67.79z"/>
  <path fill="#000" d="m15.54 4.5-.05-.16-.16.05-.71.18-.17.04.04.17a4.73 4.73 0 0 1 .15 1.12c0 .4-.1.65-.28.76a2.05 2.05 0 0 1-.87.12h-.34a.95.95 0 0 1-.65-.23 1.73 1.73 0 0 1-.45-.75 4.11 4.11 0 0 0-.16-.4 2.7 2.7 0 0 0-.2-.35 3.02 3.02 0 0 0-.24-.3 18.38 18.38 0 0 0-1.47-1.36l2.67-1 .12-.04V1.18l-.24.1-3.05 1.15a1.2 1.2 0 0 0-.53.37.94.94 0 0 0-.2.6 1.24 1.24 0 0 0 .57.96q.26.2.56.46t.63.56a1.04 1.04 0 0 1 .4.73q0 .66-1.64.67h-.64a.75.75 0 0 1-.6-.22 1.11 1.11 0 0 1-.18-.71V1.62H6.73v4.24a2.26 2.26 0 0 0 .48 1.54 1.78 1.78 0 0 0 1.4.54h.66a3.19 3.19 0 0 0 2.35-.68 1.96 1.96 0 0 0 1.53.68h.34c.18 0 .34-.01.5-.03a3.74 3.74 0 0 0 .43-.06 1.95 1.95 0 0 0 .36-.12 1.58 1.58 0 0 0 .3-.17 1.99 1.99 0 0 0 .69-1.68 4.67 4.67 0 0 0-.23-1.38Zm-2.51 4.76.63-.63.07-.07.07.07.64.64h.01l.01-.01.63-.63.07-.07.07.07.64.64.07.07-.07.06-.64.64-.07.07-.06-.07-.64-.64-.01-.01-.01.01-.64.64-.07.07-.06-.07-.64-.64-.07-.07.07-.07zm3.86-7.64h.93v6.31h-1.1V1.62Zm3.81 3.73a4.2 4.2 0 0 1 .38 1.7 2.75 2.75 0 0 1-.83 2.1 4.04 4.04 0 0 1-2.4.94l-.16.02-.03-.15-.2-.75-.04-.2.2-.02a3.26 3.26 0 0 0 1.77-.59 1.6 1.6 0 0 0 .56-1.3 3.15 3.15 0 0 0-.32-1.34l-.09-.17.19-.07.74-.26.16-.06Z"/>
</svg>

