<svg xmlns="http://www.w3.org/2000/svg" viewBox="0 0 53.36 6.92">
  <path fill="#000" d="M20.79.08a9.56 9.56 0 0 1 .73 3.97V5.1h-.65V4.04A8.57 8.57 0 0 0 20.2.29Zm3.51 2.14.47.2-1.67 3.85-.48-.21Zm2.4 2.89q-.97 0-.98-1.17A5.67 5.67 0 0 1 27.11.82V.8h-.01l-.2-.18.45-.54.46.42a5.15 5.15 0 0 1 1.9 3.4q0 1.22-.95 1.21a1.06 1.06 0 0 1-1.02-.82 1.04 1.04 0 0 1-1.03.82Zm-.35-1.17c0 .34.14.5.41.5q.52 0 .76-1.12h.45q.2 1.14.73 1.14.38 0 .38-.53a4.13 4.13 0 0 0-1.49-2.65 4.91 4.91 0 0 0-1.24 2.66Zm4.87-1.71a1.04 1.04 0 0 1 .18-.15.99.99 0 0 1 .19-.1 1.1 1.1 0 0 1 .43-.09 1.14 1.14 0 0 1 .3.04 1.1 1.1 0 0 1 .27.11 1.07 1.07 0 0 1 .24.19 1.14 1.14 0 0 1 .25.36 1.1 1.1 0 0 1 .08.44 1.09 1.09 0 0 1-.33.8 1.32 1.32 0 0 1-.18.15 1 1 0 0 1-.4.16 1.29 1.29 0 0 1-.22.02 1.13 1.13 0 0 1-.44-.08.83.83 0 0 1-.13-.06 1.2 1.2 0 0 1-.12-.09 1.34 1.34 0 0 1-.11-.1 1.14 1.14 0 0 1-.25-.37 1.12 1.12 0 0 1-.09-.43 1.13 1.13 0 0 1 .09-.43 1.1 1.1 0 0 1 .24-.37Zm.3.8a.49.49 0 0 0 .15.36.52.52 0 0 0 .17.11.53.53 0 0 0 .2.04.49.49 0 0 0 .36-.15.51.51 0 0 0 .11-.17.52.52 0 0 0 .04-.2.5.5 0 0 0-.04-.2.55.55 0 0 0-.11-.16.51.51 0 0 0-.37-.15.58.58 0 0 0-.2.04.56.56 0 0 0-.16.1.49.49 0 0 0-.14.38Zm3.57-.8a1.04 1.04 0 0 1 .17-.15.99.99 0 0 1 .2-.1 1.1 1.1 0 0 1 .43-.09 1.13 1.13 0 0 1 .3.04 1.1 1.1 0 0 1 .26.11 1.08 1.08 0 0 1 .24.19 1.14 1.14 0 0 1 .25.36 1.12 1.12 0 0 1 .08.44 1.09 1.09 0 0 1-.33.8 1.32 1.32 0 0 1-.18.15 1 1 0 0 1-.4.16 1.29 1.29 0 0 1-.23.02 1.13 1.13 0 0 1-.43-.08.79.79 0 0 1-.13-.06 1.1 1.1 0 0 1-.12-.09 1.34 1.34 0 0 1-.12-.1 1.14 1.14 0 0 1-.25-.37 1.12 1.12 0 0 1-.08-.43 1.13 1.13 0 0 1 .08-.43 1.1 1.1 0 0 1 .26-.37Zm.3.8a.49.49 0 0 0 .14.36.52.52 0 0 0 .17.11.53.53 0 0 0 .2.04.49.49 0 0 0 .37-.15.51.51 0 0 0 .1-.17.54.54 0 0 0 .04-.2.52.52 0 0 0-.03-.2.55.55 0 0 0-.12-.16.51.51 0 0 0-.36-.15.58.58 0 0 0-.2.04.56.56 0 0 0-.17.1.49.49 0 0 0-.14.38Zm4.35-.81.47.2-1.67 3.85-.48-.21Zm2.16.01a1.04 1.04 0 0 1 .17-.15.99.99 0 0 1 .2-.1 1.1 1.1 0 0 1 .43-.09 1.14 1.14 0 0 1 .3.04 1.08 1.08 0 0 1 .5.3 1.14 1.14 0 0 1 .26.36 1.12 1.12 0 0 1 .08.44 1.09 1.09 0 0 1-.33.8 1.39 1.39 0 0 1-.18.14 1.04 1.04 0 0 1-.2.1 1.02 1.02 0 0 1-.2.06 1.28 1.28 0 0 1-.22.02 1.14 1.14 0 0 1-.44-.08.83.83 0 0 1-.13-.06 1.2 1.2 0 0 1-.12-.09 1.19 1.19 0 0 1-.11-.1 1.14 1.14 0 0 1-.25-1.23 1.07 1.07 0 0 1 .24-.36Zm.3.8a.49.49 0 0 0 .15.36.5.5 0 0 0 .16.11.53.53 0 0 0 .2.04.49.49 0 0 0 .37-.15.5.5 0 0 0 .1-.17.52.52 0 0 0 .04-.2.5.5 0 0 0-.03-.2.54.54 0 0 0-.11-.16.51.51 0 0 0-.37-.15.59.59 0 0 0-.2.04.55.55 0 0 0-.17.1.5.5 0 0 0-.14.38Zm3.56-.8a1.08 1.08 0 0 1 .18-.15.99.99 0 0 1 .19-.1 1.1 1.1 0 0 1 .43-.09 1.14 1.14 0 0 1 .3.04 1.1 1.1 0 0 1 .27.11 1.07 1.07 0 0 1 .24.19 1.14 1.14 0 0 1 .25.36 1.1 1.1 0 0 1 .08.44 1.09 1.09 0 0 1-.33.8 1.32 1.32 0 0 1-.18.15 1.04 1.04 0 0 1-.19.1 1.02 1.02 0 0 1-.2.06 1.28 1.28 0 0 1-.23.02 1.13 1.13 0 0 1-.43-.09.83.83 0 0 1-.14-.06 1.2 1.2 0 0 1-.12-.08 1.34 1.34 0 0 1-.12-.1 1.14 1.14 0 0 1-.25-.37 1.12 1.12 0 0 1-.08-.43 1.13 1.13 0 0 1 .08-.44 1.1 1.1 0 0 1 .25-.36Zm.3.8a.49.49 0 0 0 .15.36.5.5 0 0 0 .17.11.53.53 0 0 0 .2.04.49.49 0 0 0 .36-.15.51.51 0 0 0 .11-.17.52.52 0 0 0 .04-.2.5.5 0 0 0-.04-.2.55.55 0 0 0-.11-.16.51.51 0 0 0-.37-.15.58.58 0 0 0-.2.04.55.55 0 0 0-.16.1.49.49 0 0 0-.14.38Zm3.57-.8a1.04 1.04 0 0 1 .17-.15 1.02 1.02 0 0 1 .2-.1 1.1 1.1 0 0 1 .43-.09 1.14 1.14 0 0 1 .3.04 1.1 1.1 0 0 1 .26.11 1.08 1.08 0 0 1 .24.19 1.14 1.14 0 0 1 .25.36 1.12 1.12 0 0 1 .09.44 1.09 1.09 0 0 1-.34.8 1.39 1.39 0 0 1-.17.15 1.04 1.04 0 0 1-.2.1 1.02 1.02 0 0 1-.2.06 1.28 1.28 0 0 1-.23.02 1.14 1.14 0 0 1-.43-.09.78.78 0 0 1-.13-.06 1.22 1.22 0 0 1-.12-.08 1.19 1.19 0 0 1-.12-.1 1.14 1.14 0 0 1-.25-1.24 1.07 1.07 0 0 1 .25-.36Zm.3.8a.49.49 0 0 0 .15.36.5.5 0 0 0 .16.11.53.53 0 0 0 .2.04.49.49 0 0 0 .36-.15.5.5 0 0 0 .11-.17.52.52 0 0 0 .04-.2.5.5 0 0 0-.04-.2.54.54 0 0 0-.1-.16.5.5 0 0 0-.37-.15.59.59 0 0 0-.2.04.55.55 0 0 0-.17.1.5.5 0 0 0-.14.38ZM3.5 6.16q1.7 0 1.7-1.59a3.06 3.06 0 0 0-.32-1.35L5.5 3a4.3 4.3 0 0 1 .35 1.58 2.58 2.58 0 0 1-.25 1.15A2.15 2.15 0 0 1 3.46 6.8Q1.3 6.8 1.3 4.81a4.32 4.32 0 0 1 .36-1.64l.57.24a3.8 3.8 0 0 0-.3 1.4q0 1.36 1.57 1.35Z"/>
  <path fill="#000" d="m2.97 3.67.52-.53.53.53-.53.52zm8.3-.61a1.13 1.13 0 0 0-.93-.43q-.76 0-1.23 1.04a2.3 2.3 0 0 1-.27.5.78.78 0 0 1-.58.33H8.2q-.77 0-.77-.9V0H6.8v3.6q0 1.56 1.4 1.56h.1a1.3 1.3 0 0 0 1-.52 1.72 1.72 0 0 0 1.26.6 1.03 1.03 0 0 0 .83-.35 1.27 1.27 0 0 0 .24-.84 1.54 1.54 0 0 0-.35-1ZM10.5 4.6a1.27 1.27 0 0 1-.9-.54q.26-.74.76-.74a.59.59 0 0 1 .57.39 1.02 1.02 0 0 1 .07.39.44.44 0 0 1-.5.5Zm6.48-2.06-.58.14a3.9 3.9 0 0 1 .13.95.8.8 0 0 1-.3.75 1.79 1.79 0 0 1-.78.12h-.59q-.16-1.94-1.25-1.94a1.08 1.08 0 0 0-1.02.7 1.86 1.86 0 0 0-.19.83q0 1.07 1.32 1.07h.52q-.28.96-1.98 1.14l.15.62q2.15-.22 2.42-1.77h.62a2.04 2.04 0 0 0 1.2-.27 1.48 1.48 0 0 0 .5-1.26 3.63 3.63 0 0 0-.17-1.08Zm-3.3 1.96c-.45 0-.67-.15-.67-.46a1.14 1.14 0 0 1 .06-.37c.1-.29.27-.43.5-.43q.6 0 .7 1.26Zm1.5-3.09L15.7.9l.52.52-.52.53zm1.17 0 .52-.52.52.52-.52.52z"/>
  <path fill="#000" d="M0 2.62h53.36v.5H0z"/>
</svg>

