<svg xmlns="http://www.w3.org/2000/svg" viewBox="0 0 76.01 8.26">
  <path fill="#000" d="M1.03 5.9a1.34 1.34 0 0 0 .19.73 1.1 1.1 0 0 0 .56.44 2.95 2.95 0 0 0 1 .15 2.89 2.89 0 0 0 1.23-.24 1.6 1.6 0 0 0 .47-.34.6.6 0 0 0 .17-.4.1.1 0 0 0 0-.04c0-.02-.06-.04-.15-.04h-.46a1.36 1.36 0 0 1-.86-.24.87.87 0 0 1-.3-.72 2 2 0 0 1 .52-1.42 2.42 2.42 0 0 1 1.89-.73h.24v1.1h-.25a1.67 1.67 0 0 0-.98.27.8.8 0 0 0-.37.62v.04l.12.02h.48a1.45 1.45 0 0 1 .6.1.84.84 0 0 1 .39.34 1 1 0 0 1 .13.53 1.9 1.9 0 0 1-.32 1.1 2.21 2.21 0 0 1-.94.75 3.41 3.41 0 0 1-.76.25 4.42 4.42 0 0 1-.86.08A3.14 3.14 0 0 1 .7 7.66 2.15 2.15 0 0 1 0 5.92 5.68 5.68 0 0 1 .58 3.7l.07-.14.14.06.64.26.15.07-.06.15a4.7 4.7 0 0 0-.49 1.8ZM6.57.4h.87v5.83H6.4V.4Zm3.01 1.67a6.8 6.8 0 0 1 1.44 1.34 2.11 2.11 0 0 1 .49 1.26 1.47 1.47 0 0 1-.75 1.32 1.75 1.75 0 0 1-.94.23 2 2 0 0 1-.9-.2 1.31 1.31 0 0 1-.58-.53 1.66 1.66 0 0 1-.2-.82 2.63 2.63 0 0 1 .89-1.76l-.05-.05-.12-.1.1-.12.4-.54.09-.13Zm.2 1.6a2.7 2.7 0 0 0-.47.54.87.87 0 0 0-.15.43.73.73 0 0 0 .03.23.35.35 0 0 0 .11.16.52.52 0 0 0 .2.1 1.37 1.37 0 0 0 .31.03.84.84 0 0 0 .53-.12.47.47 0 0 0 .14-.4.79.79 0 0 0-.17-.42 3.17 3.17 0 0 0-.54-.55ZM15.62.98l.58-.59.07-.06.06.06.59.59v.01l.01-.01.59-.59.06-.06.06.06.6.59.06.06-.06.06-.59.6-.06.06-.06-.06-.6-.6h-.01l-.59.6-.06.06-.06-.06-.59-.6-.07-.06.07-.06zm5.5 2.08-.05-.15-.15.04-.66.17-.16.04.05.15a4.31 4.31 0 0 1 .14 1.04q0 .55-.27.7a1.9 1.9 0 0 1-.8.11h-.37a4.35 4.35 0 0 1-.77-.05 1.63 1.63 0 0 0 .49-1.16 1.7 1.7 0 0 0-.93-1.5.91.91 0 0 0-.15-.07 1.58 1.58 0 0 0-.16-.06 1.06 1.06 0 0 0-.17-.03 1.46 1.46 0 0 0-.18-.01 1.21 1.21 0 0 0-.71.23 2.33 2.33 0 0 0-.65.64 1.37 1.37 0 0 0-.22.75 1.71 1.71 0 0 0 .48 1.2 7.8 7.8 0 0 1-1.06.06h-.21a.6.6 0 0 1-.39-.12.78.78 0 0 1-.23-.39l-.22-.78-.05-.16-.16.05-.7.24-.17.06.08.16a2.92 2.92 0 0 1 .3 1.23 1.48 1.48 0 0 1-.52 1.2 3 3 0 0 1-1.63.55l-.18.02.04.18.18.7.03.13.14-.02a4.15 4.15 0 0 0 1.97-.65 2.25 2.25 0 0 0 .93-1.42 1.63 1.63 0 0 0 .62.1h.17a3.9 3.9 0 0 0 2.14-.49 2.73 2.73 0 0 0 .84.36 4.28 4.28 0 0 0 1.05.13h.37c.17 0 .32-.01.46-.03a3.22 3.22 0 0 0 .4-.06 1.77 1.77 0 0 0 .33-.1 1.39 1.39 0 0 0 .27-.16 1.83 1.83 0 0 0 .64-1.55 4.32 4.32 0 0 0-.2-1.28Zm-3.8 1.33-.1.09-.07.07-.07.06a.66.66 0 0 1-.05.04.17.17 0 0 1-.03.02.05.05 0 0 0-.02 0 .04.04 0 0 1-.02 0l-.03-.02a.5.5 0 0 1-.05-.04l-.07-.05a1.68 1.68 0 0 1-.07-.08l-.1-.1a.73.73 0 0 1-.2-.43.37.37 0 0 1 .04-.17.81.81 0 0 1 .15-.2l.08-.08.08-.06.06-.04a.34.34 0 0 1 .05-.03l.04-.01a.06.06 0 0 1 .02 0 .47.47 0 0 1 .27.12 1.26 1.26 0 0 1 .18.18.63.63 0 0 1 .1.15.36.36 0 0 1 .02.14.73.73 0 0 1-.22.44Zm2.29-2.7.59-.59.06-.06.06.06.6.59.06.06-.06.06-.59.59-.06.06-.06-.06-.6-.59-.06-.06.06-.06zM30.1.4h-.88v3.9a1.64 1.64 0 0 1-.01.24.93.93 0 0 1-.05.2.64.64 0 0 1-.09.15.77.77 0 0 1-.13.12.62.62 0 0 1-.17.09 1.2 1.2 0 0 1-.2.04 1.89 1.89 0 0 1-.27.02h-.2a.62.62 0 0 1-.42-.12.63.63 0 0 1-.18-.4l-.33-2.4-.03-.17-.16.04-.67.13-.15.04.03.15v.04q-2.07.69-2.07 1.95a1.42 1.42 0 0 0 .04.35 1.17 1.17 0 0 0 .12.3 1.5 1.5 0 0 0 1.4.67 1.73 1.73 0 0 0 1-.32 1.16 1.16 0 0 0 .52.6 1.76 1.76 0 0 0 .88.2h.2a2.02 2.02 0 0 0 1.47-.48 1.87 1.87 0 0 0 .5-1.42V.4Zm-3.7 3.9a.48.48 0 0 1-.21.24 1.03 1.03 0 0 1-.54.17.66.66 0 0 1-.39-.08.3.3 0 0 1-.1-.25.35.35 0 0 1 .07-.2.94.94 0 0 1 .2-.2 2.27 2.27 0 0 1 .37-.25 4.63 4.63 0 0 1 .56-.25l.06.45a.71.71 0 0 1-.02.38ZM39 3.19l-.04-.15-.15.04-.69.18-.16.05.05.15a3.76 3.76 0 0 1 .17 1 1 1 0 0 1-.11.54.38.38 0 0 1-.33.16.91.91 0 0 1-.13 0 .51.51 0 0 1-.1-.03.28.28 0 0 1-.08-.05.39.39 0 0 1-.07-.07.32.32 0 0 1-.04-.08.92.92 0 0 1-.04-.12.9.9 0 0 1-.01-.14l-.07-.94-.01-.16-.17.01-.67.08-.15.02.01.16.02.24.01.13v.24a1.36 1.36 0 0 1-.01.25.58.58 0 0 1-.2.35.68.68 0 0 1-.41.11.65.65 0 0 1-.44-.11.51.51 0 0 1-.15-.38l-.06-.94-.01-.16-.17.01-.67.08-.16.02.02.16.02.25v.12l.01.12v.12a1.36 1.36 0 0 1-.02.25.51.51 0 0 1-.23.35 1.08 1.08 0 0 1-.56.11h-.26a.7.7 0 0 1-.54-.2 1.03 1.03 0 0 1-.17-.66V.4H31.2v3.91a2.08 2.08 0 0 0 .44 1.43 1.64 1.64 0 0 0 1.3.5h.25a1.7 1.7 0 0 0 1.3-.45 1.36 1.36 0 0 0 1.12.44 1.5 1.5 0 0 0 1.13-.45.98.98 0 0 0 .26.25 1.12 1.12 0 0 0 .34.15 1.67 1.67 0 0 0 .41.05 1.34 1.34 0 0 0 .92-.3 1.87 1.87 0 0 0 .55-1.48v-.03A4.03 4.03 0 0 0 39 3.2Zm10.56-.13-.05-.15-.14.04-.66.17-.16.04.04.15a4.31 4.31 0 0 1 .14 1.04q0 .55-.26.7a1.9 1.9 0 0 1-.8.11h-.32a.88.88 0 0 1-.6-.22 1.62 1.62 0 0 1-.41-.69 3.24 3.24 0 0 0-.25-.53 2.5 2.5 0 0 0-.32-.43 17.04 17.04 0 0 0-1.34-1.25l2.46-.92.11-.04V0l-.22.09-2.8 1.06a1.09 1.09 0 0 0-.5.35.86.86 0 0 0-.18.54 1.15 1.15 0 0 0 .52.89q.46.35 1.1.95a.96.96 0 0 1 .37.67.4.4 0 0 1-.03.14.45.45 0 0 1-.08.13.64.64 0 0 1-.14.12 1.06 1.06 0 0 1-.22.1 2.05 2.05 0 0 1-.3.06 3.94 3.94 0 0 1-.83.06h-.73a3.56 3.56 0 0 1-1.67-.3.95.95 0 0 1-.54-.86 1.63 1.63 0 0 1 .13-.6l.06-.15-.15-.06-.64-.27-.15-.07-.06.15a2.67 2.67 0 0 0-.23 1.1 1.77 1.77 0 0 0 .83 1.6 4.52 4.52 0 0 0 2.42.53h.73a5.42 5.42 0 0 0 1.38-.15 1.81 1.81 0 0 0 .87-.47 1.88 1.88 0 0 0 .63.46 1.92 1.92 0 0 0 .78.16h.32c.16 0 .31 0 .46-.02a3.22 3.22 0 0 0 .4-.06 1.74 1.74 0 0 0 .33-.1 1.37 1.37 0 0 0 .28-.16 1.83 1.83 0 0 0 .63-1.56 4.32 4.32 0 0 0-.2-1.27Zm-2.32 4.4.59-.59.06-.06.06.06.59.59h.02l.59-.59.06-.06.06.06.59.59.06.06-.06.06-.59.59-.06.06-.06-.06-.59-.59-.01-.01-.01.01-.59.59-.06.06-.06-.06-.59-.59-.06-.06.06-.06zm11.5-4.17a1.94 1.94 0 0 1 .56 1.36 1.31 1.31 0 0 1-.7 1.2 3.98 3.98 0 0 1-1.95.38h-.73a4.54 4.54 0 0 1-2.43-.53 1.77 1.77 0 0 1-.83-1.6 2.66 2.66 0 0 1 .23-1.1l.07-.15.15.07.63.27.15.07-.06.14a1.63 1.63 0 0 0-.12.6.95.95 0 0 0 .53.87 3.59 3.59 0 0 0 1.68.3h.73a5.26 5.26 0 0 0 .75-.05 1.8 1.8 0 0 0 .5-.13.7.7 0 0 0 .26-.2.39.39 0 0 0 .09-.23.96.96 0 0 0-.37-.68q-.62-.57-1.1-.94a1.58 1.58 0 0 1-.39-.43.88.88 0 0 1-.13-.46.86.86 0 0 1 .17-.54 1.1 1.1 0 0 1 .5-.35l2.8-1.07.23-.09v1.08l-.1.04-2.48.92a16.89 16.89 0 0 1 1.36 1.25ZM60.68.4h.86v5.83h-1.02V.4Zm4.34 1.63.59-.59.06-.06.06.06.59.59.01.01.01-.01.59-.59.06-.06.06.06.59.59.06.07-.06.05-.59.6-.06.06-.06-.06-.59-.6h-.02l-.59.6-.06.06-.06-.06-.59-.6-.06-.06.06-.06zm9.02 1.16L74 3.04l-.15.04-.7.18-.16.05.05.15a3.75 3.75 0 0 1 .17 1 1 1 0 0 1-.11.54.38.38 0 0 1-.33.16.91.91 0 0 1-.12-.01.5.5 0 0 1-.1-.03.26.26 0 0 1-.09-.04.39.39 0 0 1-.06-.07.32.32 0 0 1-.05-.09.93.93 0 0 1-.03-.11.79.79 0 0 1-.02-.14l-.07-.94v-.17l-.18.02-.66.08-.16.02.01.15.02.25.01.12v.24a1.28 1.28 0 0 1-.02.25.57.57 0 0 1-.19.36.68.68 0 0 1-.41.11.65.65 0 0 1-.44-.12.51.51 0 0 1-.15-.37L70 3.73l-.01-.16-.17.01-.67.08-.16.02.02.16.02.25.01.12v.24a1.28 1.28 0 0 1-.02.25.5.5 0 0 1-.23.35 1.08 1.08 0 0 1-.57.11h-.2a.64.64 0 0 1-.45-.13.66.66 0 0 1-.17-.44l-.07-.94v-.17l-.17.02-.67.08-.16.01.02.16.02.33v.37a1.62 1.62 0 0 1-.02.31q-.07.4-.87.4h-.45a.6.6 0 0 1-.39-.12.79.79 0 0 1-.22-.39l-.23-.78-.05-.16-.16.05-.68.24-.17.06.08.16a2.92 2.92 0 0 1 .3 1.23 1.48 1.48 0 0 1-.52 1.2 3 3 0 0 1-1.63.55l-.19.02.05.18.17.7.03.13.15-.02a4.16 4.16 0 0 0 1.97-.65 2.25 2.25 0 0 0 .92-1.43 1.63 1.63 0 0 0 .62.1h.42a1.9 1.9 0 0 0 1.39-.46 1.34 1.34 0 0 0 1.09.46h.24a1.7 1.7 0 0 0 1.29-.44 1.36 1.36 0 0 0 1.13.44 1.5 1.5 0 0 0 1.12-.45.99.99 0 0 0 .27.25 1.14 1.14 0 0 0 .34.15 1.66 1.66 0 0 0 .4.04 1.34 1.34 0 0 0 .93-.3 1.87 1.87 0 0 0 .54-1.47v-.03a4.03 4.03 0 0 0-.2-1.23Zm-3.68-1.07.57-.58.06-.06.06.06.59.58.01.02.02-.02.58-.58.06-.06.06.06.58.58.06.06-.06.06-.57.58-.06.06-.07-.06-.58-.58-.01-.02-.02.02-.58.58-.06.06-.06-.06-.58-.58-.06-.06.06-.06z"/>
  <path fill="#000" d="m71.01 1.03.57-.58.06-.06.06.06.59.58.06.06-.06.06-.58.58-.06.06-.06-.06-.58-.58-.06-.06.06-.06zM75.15.4H76v5.83h-1V.4Z"/>
</svg>

